<svg xmlns="http://www.w3.org/2000/svg" viewBox="0 0 164 314" width="164" height="314">
  <title>DirektDSP installer welcome panel</title>
  <!-- Ink panel: big paper D lettermark, wordmark, red rule, Outfit captions. -->
  <rect width="164" height="314" fill="#1B1813"/>
  <svg x="34" y="52" width="96" height="86" viewBox="0 20 380 374" preserveAspectRatio="xMidYMid meet">
    <g transform="translate(0,414) scale(0.1,-0.1)" fill="#F4EFE2" stroke="none">
<path d="M168 3353 l-133 -218 935 -6 c1027 -6 1000 -5 1137 -68 374 -175 314
-806 -117 -1241 -252 -255 -562 -406 -893 -435 -63 -6 -76 -5 -73 6 3 8 100
318 216 689 116 371 222 708 235 748 l24 72 -316 -2 -317 -3 -278 -895 c-153
-492 -278 -896 -278 -898 0 -13 875 7 970 22 774 126 1341 494 1644 1067 360
681 77 1252 -677 1363 -89 14 -245 16 -1025 16 l-920 0 -134 -217z"/>
</g>
  </svg>
  <svg x="22" y="152" width="120" height="34" viewBox="0 0 1272 414" preserveAspectRatio="xMidYMid meet">
    <g transform="translate(0,414) scale(0.1,-0.1)" fill="#F4EFE2" stroke="none">
<path d="M168 3353 l-133 -218 935 -6 c1027 -6 1000 -5 1137 -68 374 -175 314
-806 -117 -1241 -252 -255 -562 -406 -893 -435 -63 -6 -76 -5 -73 6 3 8 100
318 216 689 116 371 222 708 235 748 l24 72 -316 -2 -317 -3 -278 -895 c-153
-492 -278 -896 -278 -898 0 -13 875 7 970 22 774 126 1341 494 1644 1067 360
681 77 1252 -677 1363 -89 14 -245 16 -1025 16 l-920 0 -134 -217z"/>
<path d="M3721 3424 c-124 -33 -250 -133 -299 -236 -132 -281 97 -588 438
-588 144 0 243 41 346 144 91 91 117 152 117 276 0 124 -26 185 -117 276 -130
129 -308 176 -485 128z"/>
<path d="M9297 3213 c-2 -5 -132 -419 -288 -921 l-283 -913 -731 3 c-797 3
-768 1 -823 61 -44 47 -40 81 46 337 l78 235 182 3 c100 1 182 0 182 -3 0 -3
-40 -86 -90 -185 -49 -99 -90 -182 -90 -185 0 -3 132 -5 294 -5 l294 0 57 52
c125 114 153 285 65 406 -65 90 -202 157 -384 188 -155 27 -620 15 -748 -19
-182 -48 -347 -142 -446 -253 -145 -162 -184 -410 -97 -616 7 -17 -14 -18
-357 -18 l-365 0 144 456 c78 251 143 458 143 460 0 2 -211 4 -468 4 l-469 0
73 213 c41 116 74 213 74 215 0 11 -393 0 -458 -13 -166 -34 -299 -121 -354
-233 -84 -170 -15 -372 151 -444 25 -12 48 -22 50 -24 2 -2 -47 -145 -110
-319 l-114 -315 -341 0 -342 0 64 203 c35 111 99 317 142 457 l79 255 -315 3
c-173 1 -316 1 -318 0 -18 -19 -294 -940 -294 -983 0 -104 47 -174 134 -200
72 -22 865 -22 945 0 129 34 239 122 276 220 l18 45 96 0 c205 0 213 9 350
368 l104 272 174 0 c114 0 173 -4 173 -11 0 -5 -43 -147 -95 -313 -52 -167
-98 -324 -101 -348 -9 -67 17 -148 61 -187 68 -59 96 -62 566 -59 414 3 425 4
480 26 114 46 202 125 216 195 7 34 2 36 67 -28 96 -93 264 -158 481 -184 154
-19 1292 -15 1368 5 79 20 141 52 198 103 l47 41 -24 -78 c-13 -42 -24 -78
-24 -79 0 -10 343 -1 385 11 120 32 216 111 789 650 76 72 136 122 133 111 -4
-11 -43 -136 -87 -278 -100 -323 -103 -381 -21 -449 54 -46 101 -50 566 -46
417 3 432 4 490 26 80 30 159 84 194 132 l28 39 12 -53 c12 -56 48 -99 106
-127 40 -19 1096 -27 1188 -9 78 15 142 44 195 87 47 38 102 125 102 161 l0
22 -470 0 c-258 0 -470 3 -470 6 0 5 144 484 181 600 l10 32 117 4 c148 6 209
28 290 103 48 44 112 141 112 169 0 3 -94 6 -210 6 -115 0 -210 3 -210 8 0 4
47 157 105 340 58 184 105 338 105 343 0 5 -76 9 -172 9 l-173 0 -49 -96
c-173 -341 -320 -478 -615 -574 -96 -32 -88 -23 -140 -167 -22 -59 -42 -116
-46 -125 -7 -17 3 -18 125 -18 121 0 132 -1 128 -17 -3 -10 -47 -154 -99 -320
l-94 -303 -364 0 c-286 0 -362 3 -358 13 2 6 44 138 92 292 111 357 110 399
-6 465 -39 22 -58 25 -167 28 l-123 4 203 207 203 206 -205 3 -205 3 -235
-243 c-129 -134 -290 -299 -357 -368 l-123 -125 20 60 c56 171 400 1276 400
1285 0 12 -616 14 -623 3z"/>
</g>
  </svg>
  <rect x="42" y="196" width="80" height="2.5" rx="1.25" fill="#C8392B"/>
  <text x="82" y="216" text-anchor="middle"
        font-family="Outfit, DejaVu Sans, sans-serif" font-size="9"
        font-weight="600" letter-spacing="3" fill="#C8392B">AUDIO PLUGINS</text>
  <text x="82" y="296" text-anchor="middle"
        font-family="Outfit, DejaVu Sans, sans-serif" font-size="8.5"
        font-weight="500" fill="#8A8377">direktdsp.com</text>
</svg>
